HIERARCHY
ROOT joint_Root
{
	OFFSET 0.0 0.0 0.0
	CHANNELS 6 Xposition Yposition Zposition Zrotation Xrotation Yrotation 
	JOINT Hips
	{
		OFFSET -0.726466 93.3139 -2.00062
		CHANNELS 6 Xposition Yposition Zposition Zrotation Xrotation Yrotation 
		JOINT Spine
		{
			OFFSET 15.7357 0.0 0.0
			CHANNELS 6 Xposition Yposition Zposition Zrotation Xrotation Yrotation 
			JOINT Chest
			{
				OFFSET 8.98455 -0.406207 0.0
				CHANNELS 6 Xposition Yposition Zposition Zrotation Xrotation Yrotation 
				JOINT Neck
				{
					OFFSET 16.3773 0.0 0.0
					CHANNELS 6 Xposition Yposition Zposition Zrotation Xrotation Yrotation 
					JOINT Head
					{
						OFFSET 6.45672 0.0 0.0
						CHANNELS 6 Xposition Yposition Zposition Zrotation Xrotation Yrotation 
						End Site
						{
							OFFSET 0.0 0.0 0.0
						}
					}
				}
				JOINT Shoulder_L
				{
					OFFSET 12.9942 -0.242716 4.98039
					CHANNELS 6 Xposition Yposition Zposition Zrotation Xrotation Yrotation 
					JOINT UpperArm_L
					{
						OFFSET 5.34809 0.0 0.0
						CHANNELS 6 Xposition Yposition Zposition Zrotation Xrotation Yrotation 
						JOINT LowerArm_L
						{
							OFFSET 24.3286 1.87007e-05 0.0
							CHANNELS 6 Xposition Yposition Zposition Zrotation Xrotation Yrotation 
							JOINT Hand_L
							{
								OFFSET 22.2916 0.0 0.0
								CHANNELS 6 Xposition Yposition Zposition Zrotation Xrotation Yrotation 
								End Site
								{
									OFFSET 0.0 0.0 0.0
								}
							}
						}
					}
				}
				JOINT Shoulder_R
				{
					OFFSET 12.9945 -0.242716 -4.98039
					CHANNELS 6 Xposition Yposition Zposition Zrotation Xrotation Yrotation 
					JOINT UpperArm_R
					{
						OFFSET -5.34813 0.0 0.0
						CHANNELS 6 Xposition Yposition Zposition Zrotation Xrotation Yrotation 
						JOINT LowerArm_R
						{
							OFFSET -24.3289 0.000322201 0.0
							CHANNELS 6 Xposition Yposition Zposition Zrotation Xrotation Yrotation 
							JOINT Hand_R
							{
								OFFSET -22.2915 -0.000108084 0.0
								CHANNELS 6 Xposition Yposition Zposition Zrotation Xrotation Yrotation 
								End Site
								{
									OFFSET 0.0 0.0 0.0
								}
							}
						}
					}
				}
			}
		}
		JOINT UpperLeg_L
		{
			OFFSET -2.19248 -6.46944 0.0
			CHANNELS 6 Xposition Yposition Zposition Zrotation Xrotation Yrotation 
			JOINT LowerLeg_L
			{
				OFFSET 39.0811 0.0 -1.23785e-05
				CHANNELS 6 Xposition Yposition Zposition Zrotation Xrotation Yrotation 
				JOINT Foot_L
				{
					OFFSET 40.9854 0.0 -1.26872e-05
					CHANNELS 6 Xposition Yposition Zposition Zrotation Xrotation Yrotation 
					JOINT Toes_L
					{
						OFFSET 11.7543 0.0 0.0
						CHANNELS 6 Xposition Yposition Zposition Zrotation Xrotation Yrotation 
						End Site
						{
							OFFSET 0.0 0.0 0.0
						}
					}
				}
			}
		}
		JOINT UpperLeg_R
		{
			OFFSET -2.19251 6.46944 0.0
			CHANNELS 6 Xposition Yposition Zposition Zrotation Xrotation Yrotation 
			JOINT LowerLeg_R
			{
				OFFSET -39.0811 -0.00228153 -0.0401928
				CHANNELS 6 Xposition Yposition Zposition Zrotation Xrotation Yrotation 
				JOINT Foot_R
				{
					OFFSET -40.9854 0.0 0.0
					CHANNELS 6 Xposition Yposition Zposition Zrotation Xrotation Yrotation 
					JOINT Toes_R
					{
						OFFSET -11.7543 0.0 0.0
						CHANNELS 6 Xposition Yposition Zposition Zrotation Xrotation Yrotation 
						End Site
						{
							OFFSET 0.0 0.0 0.0
						}
					}
				}
			}
		}
	}
}
MOTION
Frames:	7
Frame Time:	0.0333333
0.000000 0.000000 0.000000 0.000000 0.000000 -0.000000 -2.451760 89.838900 -78.010200 85.166300 1.028140 5.335080 15.735700 0.000005 -0.000001 86.850300 84.382200 -84.249900 8.984550 -0.406207 -0.000000 3.474360 -0.713840 5.216880 16.377300 -0.000001 -0.000001 -0.080701 -3.176910 3.676300 6.456720 -0.000001 -0.000000 2.760450 -0.721865 -3.134190 12.994200 -0.242716 4.980390 -89.275900 -2.571100 -74.265100 5.348090 -0.000007 -0.000001 -73.185100 34.191200 -14.492500 24.328600 0.000019 0.000005 4.122950 10.635800 -21.359400 22.291600 -0.000001 0.000005 5.996550 5.479120 -5.677020 12.994500 -0.242716 -4.980390 87.856800 6.663110 -72.124000 -5.348130 -0.000001 -0.000004 -67.473500 26.464500 -7.807970 -24.328900 0.000322 -0.000009 2.955840 11.871900 -14.096200 -22.291500 -0.000108 -0.000004 10.466100 5.339570 -1.064880 -2.192480 -6.469440 -0.000000 -171.043000 -4.108510 -9.070440 39.081100 -0.000007 -0.000012 -0.008160 0.002866 70.686200 40.985400 -0.000006 -0.000013 5.475360 -5.665650 -41.715100 11.754300 -0.000000 0.000003 -0.007029 -0.079923 -19.830500 -2.192510 6.469440 -0.000001 -170.046000 13.739700 164.451000 -39.081100 -0.002282 -0.040193 0.066173 -0.099335 32.332500 -40.985400 0.000008 0.000006 10.317200 -4.876950 -62.974500 -11.754300 -0.000006 -0.000006 -0.007831 -0.086649 -20.101300
0.000000 0.000000 0.000000 0.000000 0.000000 -0.000000 -2.351750 90.732000 -74.571300 86.442600 -1.410640 5.193810 15.735700 0.000005 -0.000001 95.782300 84.279200 -93.778400 8.984550 -0.406207 -0.000000 3.602180 1.078530 3.969550 16.377300 -0.000001 -0.000001 0.213039 -2.807700 3.992050 6.456720 -0.000001 -0.000000 3.106850 -1.257300 -2.862740 12.994200 -0.242716 4.980390 -89.044400 -3.267130 -73.687900 5.348090 -0.000007 -0.000001 -76.203100 33.101000 -11.320100 24.328600 0.000019 0.000005 5.046550 17.036700 -16.783000 22.291600 -0.000001 0.000005 3.151120 5.419610 -3.574450 12.994500 -0.242716 -4.980390 88.138700 6.193140 -73.237100 -5.348130 -0.000001 -0.000004 -66.130000 27.889800 -12.504900 -24.328900 0.000322 -0.000009 2.964830 10.500000 -15.872200 -22.291500 -0.000108 -0.000004 11.542800 5.355930 -1.552520 -2.192480 -6.469440 -0.000000 -173.223000 -6.143570 -13.910600 39.081100 -0.000007 -0.000012 -0.007388 0.002478 71.500900 40.985400 -0.000006 -0.000013 5.277820 -6.112180 -44.258500 11.754300 -0.000000 0.000003 -0.008060 -0.088534 -20.182000 -2.192510 6.469440 -0.000001 -172.071000 14.732400 168.688000 -39.081100 -0.002282 -0.040193 0.068414 -0.115406 29.431200 -40.985400 0.000008 0.000006 10.384800 -1.351020 -64.320600 -11.754300 -0.000006 -0.000006 -0.007511 -0.083996 -19.993000
0.000000 0.000000 0.000000 0.000000 0.000000 -0.000000 -2.225810 91.507000 -71.364400 87.562000 -3.899470 4.610370 15.735700 0.000005 -0.000001 103.119000 84.226600 -101.671000 8.984550 -0.406207 -0.000000 3.451710 2.563160 2.815870 16.377300 -0.000001 -0.000001 0.468995 -2.152870 4.268620 6.456720 -0.000001 -0.000000 3.584290 -1.517220 -3.104720 12.994200 -0.242716 4.980390 -88.806300 -3.906650 -72.994700 5.348090 -0.000007 -0.000001 -78.760300 30.249200 -7.586730 24.328600 0.000019 0.000005 4.889330 20.499600 -13.727600 22.291600 -0.000001 0.000005 1.526810 5.372510 -2.059960 12.994500 -0.242716 -4.980390 88.482800 5.385710 -74.243100 -5.348130 -0.000001 -0.000004 -64.452300 29.359000 -18.032100 -24.328900 0.000322 -0.000009 3.042830 9.735150 -17.457800 -22.291500 -0.000108 -0.000004 11.995900 5.364780 -1.825610 -2.192480 -6.469440 -0.000000 -175.285000 -8.175930 -18.490800 39.081100 -0.000007 -0.000012 -0.005243 0.002002 69.159900 40.985400 -0.000006 -0.000013 5.563420 -5.275430 -47.807600 11.754300 -0.000000 0.000003 -0.009144 -0.097140 -20.533700 -2.192510 6.469440 -0.000001 -174.048000 16.118800 172.302000 -39.081100 -0.002282 -0.040193 0.051306 -0.097783 26.143600 -40.985400 0.000008 0.000006 10.229900 2.421280 -65.072600 -11.754300 -0.000006 -0.000006 -0.007336 -0.082523 -19.932900
0.000000 0.000000 0.000000 0.000000 0.000000 -0.000000 -2.166030 92.073700 -68.154100 88.463000 -6.600410 4.135750 15.735700 0.000005 -0.000001 109.585000 84.062100 -108.621000 8.984550 -0.406207 -0.000000 3.397130 3.939260 1.809400 16.377300 -0.000001 -0.000001 0.626453 -1.464550 4.381640 6.456720 -0.000001 -0.000000 3.911980 -1.499320 -3.447060 12.994200 -0.242716 4.980390 -88.653700 -4.191860 -72.177300 5.348090 -0.000007 -0.000001 -80.130500 26.506000 -3.853900 24.328600 0.000019 0.000005 4.138660 20.156600 -11.858100 22.291600 -0.000001 0.000005 1.088870 5.348080 -1.320940 12.994500 -0.242716 -4.980390 88.704000 4.883400 -75.117200 -5.348130 -0.000001 -0.000004 -61.876200 30.495900 -23.777200 -24.328900 0.000322 -0.000009 3.181530 8.920800 -19.728200 -22.291500 -0.000108 -0.000004 11.773200 5.367190 -1.901000 -2.192480 -6.469440 -0.000000 -176.747000 -10.362600 -21.601400 39.081100 -0.000007 -0.000012 0.014649 -0.007384 63.232700 40.985400 -0.000006 -0.000013 5.308530 -3.817780 -51.402100 11.754300 -0.000000 0.000003 -0.008661 -0.093356 -20.379000 -2.192510 6.469440 -0.000001 -175.815000 15.504800 175.895000 -39.081100 -0.002282 -0.040193 0.035325 -0.075875 22.873100 -40.985400 0.000008 0.000006 9.842120 4.779240 -65.588000 -11.754300 -0.000006 -0.000006 -0.007007 -0.079721 -19.818500
0.000000 0.000000 0.000000 0.000000 0.000000 -0.000000 -2.090640 92.383900 -64.992100 89.121100 -8.852030 3.722480 15.735700 0.000005 -0.000001 113.651000 83.868000 -113.059000 8.984550 -0.406207 -0.000000 3.453720 4.891660 1.035400 16.377300 -0.000001 -0.000001 0.679543 -0.836016 4.275720 6.456720 -0.000001 -0.000000 3.915540 -1.396660 -3.741350 12.994200 -0.242716 4.980390 -88.628500 -4.073330 -71.373200 5.348090 -0.000007 -0.000001 -80.307700 23.070400 -0.501497 24.328600 0.000019 0.000005 3.620230 18.722100 -11.150500 22.291600 -0.000001 0.000005 2.354160 5.350870 -1.402560 12.994500 -0.242716 -4.980390 88.797300 4.780750 -75.861000 -5.348130 -0.000001 -0.000004 -58.412000 31.022900 -29.543000 -24.328900 0.000322 -0.000009 3.298800 7.957680 -22.612300 -22.291500 -0.000108 -0.000004 11.441000 5.373940 -2.109080 -2.192480 -6.469440 -0.000000 -177.770000 -12.111900 -23.341800 39.081100 -0.000007 -0.000012 0.025545 -0.018678 53.820600 40.985400 -0.000006 -0.000013 4.406920 -3.137190 -53.498700 11.754300 -0.000000 0.000003 -0.007916 -0.087359 -20.134000 -2.192510 6.469440 -0.000001 -177.474000 15.105200 179.326000 -39.081100 -0.002282 -0.040193 0.018195 -0.041468 19.731200 -40.985400 0.000008 0.000006 9.035850 6.813930 -66.249600 -11.754300 -0.000006 -0.000006 -0.005799 -0.068996 -19.381000
0.000000 0.000000 0.000000 0.000000 0.000000 -0.000000 -2.028330 92.395600 -61.879900 89.325700 -10.189600 3.205610 15.735700 0.000005 -0.000001 115.294000 83.766500 -114.877000 8.984550 -0.406207 -0.000000 3.499390 5.304740 0.671288 16.377300 -0.000001 -0.000001 0.635506 -0.401505 3.997650 6.456720 -0.000001 -0.000000 3.676970 -1.275540 -3.964570 12.994200 -0.242716 4.980390 -88.691400 -3.755380 -70.772100 5.348090 -0.000007 -0.000001 -79.911800 20.868000 2.212550 24.328600 0.000019 0.000005 3.401180 17.694400 -11.063800 22.291600 -0.000001 0.000005 4.160260 5.361220 -1.715330 12.994500 -0.242716 -4.980390 88.780300 5.033040 -76.359200 -5.348130 -0.000001 -0.000004 -54.408700 30.921400 -34.869200 -24.328900 0.000322 -0.000009 3.479690 7.137330 -26.086100 -22.291500 -0.000108 -0.000004 11.741600 5.388870 -2.578150 -2.192480 -6.469440 -0.000000 -178.229000 -13.164600 -23.770600 39.081100 -0.000007 -0.000012 0.019971 -0.022905 41.082800 40.985400 -0.000006 -0.000013 3.399340 -3.406040 -52.481900 11.754300 -0.000000 0.000003 -0.007821 -0.086576 -20.102100 -2.192510 6.469440 -0.000001 -178.772000 15.456700 -177.494000 -39.081100 -0.002282 -0.040193 0.006750 -0.011215 16.976000 -40.985400 0.000008 0.000006 8.563530 8.579060 -67.373500 -11.754300 -0.000006 -0.000006 -0.006392 -0.074356 -19.599600
0.000000 0.000000 0.000000 0.000000 0.000000 -0.000000 -1.989370 92.100900 -58.693600 88.949300 -10.662100 2.592490 15.735700 0.000005 -0.000001 115.575000 83.798900 -115.079000 8.984550 -0.406207 -0.000000 3.410690 5.328790 0.834460 16.377300 -0.000001 -0.000001 0.702546 -0.258714 3.549490 6.456720 -0.000001 -0.000000 3.275800 -1.241440 -4.186580 12.994200 -0.242716 4.980390 -88.798800 -3.363270 -70.331700 5.348090 -0.000007 -0.000001 -79.317800 20.151100 4.347260 24.328600 0.000019 0.000005 3.340100 17.267600 -11.123100 22.291600 -0.000001 0.000005 5.457360 5.374220 -2.116980 12.994500 -0.242716 -4.980390 88.697000 5.345100 -76.278500 -5.348130 -0.000001 -0.000004 -50.751700 30.298100 -39.371000 -24.328900 0.000322 -0.000009 3.681250 6.456320 -29.785400 -22.291500 -0.000108 -0.000004 12.088100 5.404280 -3.076680 -2.192480 -6.469440 -0.000000 -178.060000 -13.168100 -22.513000 39.081100 -0.000007 -0.000012 0.001697 -0.003574 25.396200 40.985400 -0.000006 -0.000013 3.707180 -3.417770 -50.872800 11.754300 -0.000000 0.000003 -0.007150 -0.080956 -19.872600 -2.192510 6.469440 -0.000001 -179.594000 16.332400 -174.519000 -39.081100 -0.002282 -0.040193 -0.002770 0.023093 14.797600 -40.985400 0.000008 0.000006 7.912250 9.831120 -68.779500 -11.754300 -0.000006 -0.000006 -0.006446 -0.074835 -19.619100
